<svg xmlns="http://www.w3.org/2000/svg" fill="none" viewBox="0 0 16 16">
  <g clip-path="url(#a)">
    <path fill="url(#b)" d="M14 0H2a2 2 0 0 0-2 2v12c0 1.1.9 2 2 2h12a2 2 0 0 0 2-2V2a2 2 0 0 0-2-2ZM4.47 11.18a1.19 1.19 0 0 1-1.62.46 1.19 1.19 0 0 1-.47-1.62c.36-.65.55-1.33.55-2.02a4.1 4.1 0 0 0-.55-2.03 1.2 1.2 0 0 1 .47-1.62 1.2 1.2 0 0 1 1.62.46 6.4 6.4 0 0 1 0 6.36v.01Zm3.88 1.37a1.2 1.2 0 0 1-1.62.46 1.2 1.2 0 0 1-.45-1.62 6.91 6.91 0 0 0 0-6.76 1.2 1.2 0 0 1 .45-1.62 1.2 1.2 0 0 1 1.62.46 9.3 9.3 0 0 1 0 9.1v-.02Zm3.85 1.35a1.2 1.2 0 0 1-1.63.45 1.16 1.16 0 0 1-.56-.72c-.08-.31-.05-.63.11-.9a9.58 9.58 0 0 0 0-9.46c-.16-.28-.2-.6-.11-.9.08-.31.28-.56.56-.72a1.2 1.2 0 0 1 1.62.45 12 12 0 0 1 0 11.8h.01Z"/>
  </g>
  <defs>
    <linearGradient id="b" x1="2.9" x2="13.1" y1="16.83" y2="-.83" gradientUnits="userSpaceOnUse">
      <stop stop-color="#9F9"/>
      <stop offset=".5" stop-color="#E6D767"/>
      <stop offset="1" stop-color="#EA6C5E"/>
    </linearGradient>
    <clipPath id="a">
      <path fill="#fff" d="M0 0h16v16H0z"/>
    </clipPath>
  </defs>
</svg>
